<svg xmlns="http://www.w3.org/2000/svg" viewBox="0 0 800 600" role="img" aria-labelledby="t2">
<title id="t2">Placeholder: Sewing Machine</title>
<defs>
<linearGradient id="bg2" x1="0" y1="0" x2="1" y2="1">
<stop offset="0" stop-color="#151a29" /><stop offset="1" stop-color="#0a0c14" />
</linearGradient>
<linearGradient id="gold2" x1="0" y1="0" x2="1" y2="1">
<stop offset="0" stop-color="#f0c878"/><stop offset="1" stop-color="#c9962f"/>
</linearGradient>
</defs>
<rect width="800" height="600" fill="url(#bg2)"/>
<g fill="none" stroke="url(#gold2)" stroke-width="3" stroke-linecap="round" stroke-linejoin="round" opacity="0.9">
<!-- base -->
<path d="M180 420 Q400 460 620 420 L610 440 Q400 480 190 440 Z" />
<!-- body -->
<path d="M220 420 C 210 320 240 260 320 240 L 520 240 C 560 240 580 265 585 300 L 585 340 L 620 340 L 620 420 Z"/>
<!-- arm -->
<path d="M320 240 C 300 210 300 180 340 160 L 460 160 C 500 160 520 190 500 225" />
<!-- needle -->
<path d="M500 225 L 505 300" stroke-width="3"/>
<circle cx="505" cy="303" r="4" fill="url(#gold2)"/>
<!-- wheel -->
<circle cx="560" cy="210" r="26"/>
<circle cx="560" cy="210" r="4" fill="url(#gold2)"/>
<!-- spool -->
<ellipse cx="370" cy="190" rx="18" ry="10"/>
<path d="M370 180 L370 200" opacity="0.5"/>
<!-- thread path -->
<path d="M375 195 Q 420 210 440 190 Q 470 165 500 200" stroke-width="2" opacity="0.6"/>
<!-- fabric feed -->
<path d="M180 420 Q 300 440 400 425" stroke-width="2" opacity="0.5"/>
</g>
<text x="400" y="560" font-family="Georgia, serif" font-size="20" fill="#c9962f" text-anchor="middle" opacity="0.65">Placeholder — Sewing Machine</text>
</svg>
